<svg width="43" height="60" xmlns="http://www.w3.org/2000/svg"><g fill="#FFF" fill-rule="evenodd"><path d="M14.034 19.539c2.198 1.51 5.752 3.41 4.878 4.974-.875 1.563-2.44 5.873-3.774 6.916 0 0 1.61-2.085-1.104-4.216-2.716-2.132-6.306-4.737-7.364-5.827-1.059-1.09-1.473-1.99 0-3.979 1.473-1.99 2.347-3.268 3.59-4.074 0 0-1.657 1.706-.369 2.795 1.289 1.09 1.944 1.9 4.143 3.41"/><path d="M22.103 13.948c3.46 1.495 7.383 4.204 9.228 3.223 1.846-.98 2.86-2.896 2.814-4.017 0 0 .877 1.773-1.753 4.226-2.63 2.453-.923 4.368-2.814 5.163-1.892.794-3.138.093-7.936-2.196s-6.736-3.223-6.782-1.822c-.046 1.402 0 2.99 0 2.99L14.306 21s-.046-5.091 0-6.96c.046-1.868.185-2.942 1.615-2.522 1.43.42 6.182 2.43 6.182 2.43"/><path d="M32.643 34.284c4.212-2.089 8.424-3.76 9.453-7.473 1.03-3.713-.234-5.756-.234-5.756s2.247 3.156-.187 8.123c-2.433 4.967.655 7.102-1.731 8.356-2.387 1.253-10.484 5.06-12.169 6.452-1.685 1.392-1.685 1.856-1.497 2.46.187.603.49.557-.082 1.67-.574 1.115-1.51 3.297-1.557 4.55-.046 1.253.562 5.152-2.2 7.334 0 0 3.417-3.853 0-7.938-3.416-4.084-11.911-10.954-17.164-15.178C.022 32.66-.774 31.917.583 29.457c1.358-2.46 3.183-4.874 4.447-5.617 0 0-1.732 1.625-1.498 2.507.234.882 3.463 4.363 7.441 7.287 3.979 2.925 13.198 10.352 14.134 11.976 0 0 .562-.51-.14-1.856-.702-1.347-2.34-3.807.375-5.431 2.714-1.625 7.3-4.039 7.3-4.039"/><path d="M22.535 44.092s-1.19-27.868-.146-33.037C23.505 5.534 25.01 2.024 27.532.06c0 0-1.989 2.854-3.187 7.814-1.178 4.875-1.422 20.777-1.325 25.175.097 4.399-.146 11.652-.146 11.652l-.34-.608z"/><path d="M22.911 36.149c-.657-.387-.769-.43-1.644-1.014-.876-.584-3.137-1.096-1.814-3.043 1.324-1.947 1.954-4.138 3.235-3.36.882.537 3.455 1.461 2.965 2.727-1.056 2.726-2.085 5.076-2.742 4.69"/></g></svg>