<svg width="18" height="18" xmlns="http://www.w3.org/2000/svg"><path d="M9.004 4.4a4.589 4.589 0 00-4.596 4.596 4.589 4.589 0 004.596 4.596A4.589 4.589 0 0013.6 8.996 4.589 4.589 0 009.004 4.4zm0 7.584a2.993 2.993 0 01-2.988-2.988 2.99 2.99 0 012.988-2.988 2.99 2.99 0 012.988 2.988 2.993 2.993 0 01-2.988 2.988zm5.856-7.772a1.07 1.07 0 01-1.072 1.072 1.072 1.072 0 111.072-1.072zM17.904 5.3c-.068-1.436-.396-2.708-1.448-3.756C15.408.496 14.136.168 12.7.096c-1.48-.084-5.916-.084-7.396 0C3.872.164 2.6.492 1.548 1.54.496 2.588.172 3.86.1 5.296c-.084 1.48-.084 5.916 0 7.396.068 1.436.396 2.708 1.448 3.756 1.052 1.048 2.32 1.376 3.756 1.448 1.48.084 5.916.084 7.396 0 1.436-.068 2.708-.396 3.756-1.448 1.048-1.048 1.376-2.32 1.448-3.756.084-1.48.084-5.912 0-7.392zm-1.912 8.98a3.025 3.025 0 01-1.704 1.704c-1.18.468-3.98.36-5.284.36-1.304 0-4.108.104-5.284-.36a3.025 3.025 0 01-1.704-1.704c-.468-1.18-.36-3.98-.36-5.284 0-1.304-.104-4.108.36-5.284A3.025 3.025 0 013.72 2.008c1.18-.468 3.98-.36 5.284-.36 1.304 0 4.108-.104 5.284.36a3.025 3.025 0 011.704 1.704c.468 1.18.36 3.98.36 5.284 0 1.304.108 4.108-.36 5.284z" fill="#FFF" fill-rule="nonzero"/></svg>
