<svg width="18" height="18" xmlns="http://www.w3.org/2000/svg"><path d="M16.64 0H1.276C.572 0 0 .58 0 1.292v15.336c0 .712.572 1.292 1.276 1.292H16.64c.704 0 1.28-.58 1.28-1.292V1.292C17.92.58 17.344 0 16.64 0zM5.416 15.36H2.76V6.808h2.66v8.552h-.004zM4.088 5.64a1.54 1.54 0 010-3.08c.848 0 1.54.692 1.54 1.54 0 .852-.688 1.54-1.54 1.54zm11.284 9.72h-2.656V11.2c0-.992-.02-2.268-1.38-2.268-1.384 0-1.596 1.08-1.596 2.196v4.232H7.084V6.808h2.548v1.168h.036c.356-.672 1.224-1.38 2.516-1.38 2.688 0 3.188 1.772 3.188 4.076v4.688z" fill="#FFF" fill-rule="nonzero"/></svg>
